<?xml version="1.0" encoding="iso-8859-1"?>
<!-- Generator: Adobe Illustrator 16.0.0, SVG Export Plug-In . SVG Version: 6.00 Build 0)  -->
<!DOCTYPE svg PUBLIC "-//W3C//DTD SVG 1.1//EN" "http://www.w3.org/Graphics/SVG/1.1/DTD/svg11.dtd">
<svg version="1.1" id="Capa_1" xmlns="http://www.w3.org/2000/svg" xmlns:xlink="http://www.w3.org/1999/xlink" x="0px" y="0px"
	 width="554.625px" height="554.625px" viewBox="0 0 554.625 554.625" style="enable-background:new 0 0 554.625 554.625;"
	 xml:space="preserve">
<g>
	<g>
		<path d="M325.125,286.875h19.125c11.475,0,19.125,7.65,19.125,19.125H382.5c0-21.037-17.213-38.25-38.25-38.25h-19.125
			c-21.037,0-38.25,17.213-38.25,38.25v57.375c0,21.037,17.213,38.25,38.25,38.25h19.125c21.037,0,38.25-17.213,38.25-38.25h-19.125
			c0,11.475-7.65,19.125-19.125,19.125h-19.125c-11.475,0-19.125-7.65-19.125-19.125V306
			C306,294.525,313.65,286.875,325.125,286.875z"/>
		<path d="M497.25,210.375H363.375V153L248.625,19.125H38.25C17.212,19.125,0,36.337,0,57.375V497.25
			c0,21.037,17.212,38.25,38.25,38.25h286.875c21.037,0,38.25-17.213,38.25-38.25V459H497.25c32.513,0,57.375-24.862,57.375-57.375
			V267.75C554.625,235.237,529.763,210.375,497.25,210.375z M248.625,47.812L338.513,153H267.75
			c-9.562,0-19.125-9.562-19.125-19.125V47.812z M344.25,497.25c0,9.562-7.65,19.125-19.125,19.125H38.25
			c-9.562,0-19.125-7.65-19.125-19.125V57.375c0-9.562,7.65-19.125,19.125-19.125H229.5v95.625c0,21.038,17.212,38.25,38.25,38.25
			h76.5v38.25H172.125c-32.513,0-57.375,24.862-57.375,57.375v133.875c0,32.513,24.862,57.375,57.375,57.375H344.25V497.25z
			 M535.5,401.625c0,21.037-17.213,38.25-38.25,38.25H172.125c-21.038,0-38.25-17.213-38.25-38.25V267.75
			c0-21.038,17.212-38.25,38.25-38.25H497.25c21.037,0,38.25,17.212,38.25,38.25V401.625z"/>
	</g>
</g>
<g>
</g>
<g>
</g>
<g>
</g>
<g>
</g>
<g>
</g>
<g>
</g>
<g>
</g>
<g>
</g>
<g>
</g>
<g>
</g>
<g>
</g>
<g>
</g>
<g>
</g>
<g>
</g>
<g>
</g>
</svg>
