<?xml version="1.0" encoding="iso-8859-1"?>
<!-- Generator: Adobe Illustrator 16.0.0, SVG Export Plug-In . SVG Version: 6.00 Build 0)  -->
<!DOCTYPE svg PUBLIC "-//W3C//DTD SVG 1.1//EN" "http://www.w3.org/Graphics/SVG/1.1/DTD/svg11.dtd">
<svg version="1.1" id="Capa_1" xmlns="http://www.w3.org/2000/svg" xmlns:xlink="http://www.w3.org/1999/xlink" x="0px" y="0px"
	 width="612px" height="612px" viewBox="0 0 612 612" style="enable-background:new 0 0 612 612;" xml:space="preserve">
<g>
	<g>
		<path d="M172.125,296.438H114.75v133.875h57.375c21.038,0,38.25-17.213,38.25-38.25v-57.375
			C210.375,313.65,193.163,296.438,172.125,296.438z M191.25,392.062c0,11.475-7.65,19.125-19.125,19.125h-38.25v-95.625h38.25
			c11.475,0,19.125,7.65,19.125,19.125V392.062z"/>
		<path d="M286.875,296.438H267.75c-21.038,0-38.25,17.213-38.25,38.25v57.375c0,21.037,17.212,38.25,38.25,38.25h19.125
			c21.037,0,38.25-17.213,38.25-38.25v-57.375C325.125,313.65,307.912,296.438,286.875,296.438z M306,392.062
			c0,11.475-7.65,19.125-19.125,19.125H267.75c-11.475,0-19.125-7.65-19.125-19.125v-57.375c0-11.475,7.65-19.125,19.125-19.125
			h19.125c11.475,0,19.125,7.65,19.125,19.125V392.062z"/>
		<path d="M382.5,315.562h19.125c11.475,0,19.125,7.65,19.125,19.125h19.125c0-21.037-17.213-38.25-38.25-38.25H382.5
			c-21.037,0-38.25,17.213-38.25,38.25v57.375c0,21.037,17.213,38.25,38.25,38.25h19.125c21.037,0,38.25-17.213,38.25-38.25H420.75
			c0,11.475-7.65,19.125-19.125,19.125H382.5c-11.475,0-19.125-7.65-19.125-19.125v-57.375
			C363.375,323.213,371.025,315.562,382.5,315.562z"/>
		<path d="M554.625,239.062h-191.25v-57.375L248.625,47.812H38.25C17.212,47.812,0,65.025,0,86.062v439.875
			c0,21.037,17.212,38.25,38.25,38.25h286.875c21.037,0,38.25-17.213,38.25-38.25v-38.25h191.25
			c32.513,0,57.375-24.862,57.375-57.375V296.438C612,263.925,587.138,239.062,554.625,239.062z M248.625,76.5l89.888,105.188
			H267.75c-9.562,0-19.125-9.562-19.125-19.125V76.5z M344.25,525.938c0,9.562-7.65,19.125-19.125,19.125H38.25
			c-9.562,0-19.125-7.65-19.125-19.125V86.062c0-9.562,7.65-19.125,19.125-19.125H229.5v95.625c0,21.038,17.212,38.25,38.25,38.25
			h76.5v38.25h-229.5c-32.513,0-57.375,24.862-57.375,57.375v133.875c0,32.513,24.862,57.375,57.375,57.375h229.5V525.938z
			 M592.875,430.312c0,21.037-17.213,38.25-38.25,38.25H114.75c-21.038,0-38.25-17.213-38.25-38.25V296.438
			c0-21.038,17.212-38.25,38.25-38.25h439.875c21.037,0,38.25,17.212,38.25,38.25V430.312z"/>
		<polygon points="535.5,296.438 506.812,346.162 478.125,296.438 459,296.438 497.25,363.375 459,430.312 478.125,430.312 
			506.812,380.588 535.5,430.312 554.625,430.312 516.375,363.375 554.625,296.438 		"/>
	</g>
</g>
<g>
</g>
<g>
</g>
<g>
</g>
<g>
</g>
<g>
</g>
<g>
</g>
<g>
</g>
<g>
</g>
<g>
</g>
<g>
</g>
<g>
</g>
<g>
</g>
<g>
</g>
<g>
</g>
<g>
</g>
</svg>
