<?xml version="1.0" standalone="no"?>
<!DOCTYPE svg PUBLIC "-//W3C//DTD SVG 20010904//EN"
 "http://www.w3.org/TR/2001/REC-SVG-20010904/DTD/svg10.dtd">
<svg version="1.0" xmlns="http://www.w3.org/2000/svg"
 width="500.000000pt" height="500.000000pt" viewBox="0 0 500.000000 500.000000"
 preserveAspectRatio="xMidYMid meet">
<metadata>
Created by potrace 1.15, written by Peter Selinger 2001-2017
</metadata>
<g transform="translate(0.000000,500.000000) scale(0.100000,-0.100000)"
fill="#000000" stroke="none">
<path d="M192 4579 c-71 -28 -144 -101 -171 -174 l-21 -56 2 -1912 3 -1912 28
-57 c34 -69 91 -121 164 -148 53 -20 76 -20 2053 -20 1977 0 2000 0 2053 20
111 42 176 129 197 265 6 39 51 284 100 545 49 261 143 770 209 1130 66 360
137 744 157 852 35 182 36 201 25 252 -25 113 -118 204 -232 228 l-59 12 0
173 c0 152 -3 179 -21 230 -29 76 -96 143 -172 172 l-58 21 -1322 0 -1323 0
-30 33 c-17 17 -66 85 -108 149 -82 124 -125 169 -190 199 -38 17 -78 19 -636
18 -574 0 -597 -1 -648 -20z m1218 -189 c10 -5 62 -75 114 -154 99 -150 134
-187 201 -217 38 -18 104 -19 1368 -19 1222 0 1331 -1 1357 -17 44 -26 50 -51
50 -223 l0 -160 -1887 -2 -1888 -3 -57 -28 c-61 -30 -117 -89 -142 -149 -8
-19 -22 -75 -30 -124 -25 -152 -276 -1497 -285 -1529 -5 -18 -9 496 -10 1269
l-1 1298 34 34 34 34 562 0 c354 0 568 -4 580 -10z m3349 -1015 c16 -14 33
-34 36 -45 6 -19 -16 -142 -259 -1445 -80 -429 -166 -897 -191 -1040 -25 -143
-51 -273 -57 -289 -23 -59 99 -56 -2039 -56 -2155 0 -2012 -4 -2038 59 -13 29
-5 72 203 1186 57 308 146 787 196 1065 50 278 96 516 101 530 5 14 22 33 37
43 25 15 168 16 2004 17 l1976 0 31 -25z"/>
</g>
</svg>
