<?xml version="1.0" encoding="iso-8859-1"?>
<!-- Generator: Adobe Illustrator 16.0.0, SVG Export Plug-In . SVG Version: 6.00 Build 0)  -->
<!DOCTYPE svg PUBLIC "-//W3C//DTD SVG 1.1//EN" "http://www.w3.org/Graphics/SVG/1.1/DTD/svg11.dtd">
<svg version="1.1" id="Capa_1" xmlns="http://www.w3.org/2000/svg" xmlns:xlink="http://www.w3.org/1999/xlink" x="0px" y="0px"
	 width="573.75px" height="573.75px" viewBox="0 0 573.75 573.75" style="enable-background:new 0 0 573.75 573.75;"
	 xml:space="preserve">
<g>
	<g>
		<path d="M248.625,277.312H191.25v38.25v95.625h19.125v-57.375h38.25c21.037,0,38.25-17.213,38.25-38.25
			S269.662,277.312,248.625,277.312z M248.625,334.688h-38.25v-38.25h38.25c11.475,0,19.125,7.65,19.125,19.125
			S260.1,334.688,248.625,334.688z"/>
		<path d="M344.25,296.438h19.125c11.475,0,19.125,9.562,19.125,19.125h19.125c0-21.037-17.213-38.25-38.25-38.25H344.25
			c-21.037,0-38.25,17.213-38.25,38.25s17.213,38.25,38.25,38.25h19.125c11.475,0,19.125,7.65,19.125,19.125
			s-7.65,19.125-19.125,19.125H344.25c-11.475,0-19.125-9.562-19.125-19.125l0,0H306l0,0c0,21.037,17.213,38.25,38.25,38.25h19.125
			c21.037,0,38.25-17.213,38.25-38.25s-17.213-38.25-38.25-38.25H344.25c-11.475,0-19.125-7.65-19.125-19.125
			S332.775,296.438,344.25,296.438z"/>
		<path d="M516.375,219.938h-153v-57.375L248.625,28.688H38.25C17.212,28.688,0,45.9,0,66.938v439.875
			c0,21.037,17.212,38.25,38.25,38.25h286.875c21.037,0,38.25-17.213,38.25-38.25v-38.25h153c32.513,0,57.375-24.862,57.375-57.375
			V277.312C573.75,244.8,548.888,219.938,516.375,219.938z M248.625,57.375l89.888,105.188H267.75
			c-9.562,0-19.125-9.562-19.125-19.125V57.375z M344.25,506.812c0,9.562-7.65,19.125-19.125,19.125H38.25
			c-9.562,0-19.125-7.65-19.125-19.125V66.938c0-9.562,7.65-19.125,19.125-19.125H229.5v95.625c0,21.038,17.212,38.25,38.25,38.25
			h76.5v38.25h-153c-32.513,0-57.375,24.862-57.375,57.375v133.875c0,32.513,24.862,57.375,57.375,57.375h153V506.812z
			 M554.625,411.188c0,21.037-17.213,38.25-38.25,38.25H191.25c-21.038,0-38.25-17.213-38.25-38.25V277.312
			c0-21.038,17.212-38.25,38.25-38.25h325.125c21.037,0,38.25,17.212,38.25,38.25V411.188z"/>
		<path d="M478.125,277.312H420.75v133.875h57.375c21.037,0,38.25-17.213,38.25-38.25v-57.375
			C516.375,294.525,499.162,277.312,478.125,277.312z M497.25,372.938c0,11.475-7.65,19.125-19.125,19.125h-38.25v-95.625h38.25
			c11.475,0,19.125,7.65,19.125,19.125V372.938z"/>
	</g>
</g>
<g>
</g>
<g>
</g>
<g>
</g>
<g>
</g>
<g>
</g>
<g>
</g>
<g>
</g>
<g>
</g>
<g>
</g>
<g>
</g>
<g>
</g>
<g>
</g>
<g>
</g>
<g>
</g>
<g>
</g>
</svg>
